<?xml version="1.0" encoding="utf-8"?>
<!-- Generator: Adobe Illustrator 15.0.2, SVG Export Plug-In  -->
<!DOCTYPE svg PUBLIC "-//W3C//DTD SVG 1.1//EN" "http://www.w3.org/Graphics/SVG/1.1/DTD/svg11.dtd" [
	<!ENTITY ns_flows "http://ns.adobe.com/Flows/1.0/">
]>
<svg version="1.1"
	 xmlns="http://www.w3.org/2000/svg" xmlns:xlink="http://www.w3.org/1999/xlink" xmlns:a="http://ns.adobe.com/AdobeSVGViewerExtensions/3.0/"
	 x="0px" y="0px" width="945px" height="945px" viewBox="0 -0.062 945 945"
	 overflow="visible" enable-background="new 0 -0.062 945 945" xml:space="preserve">
<defs>
</defs>
<rect fill="#FFFFFF" width="945" height="945"/>
<polygon fill="#3098C6" points="137.859,501.863 137.859,488.762 109.801,488.762 109.18,488.762 96.699,488.762 96.699,634.844 
	109.18,634.844 109.801,634.844 137.859,634.844 137.859,621.742 109.801,621.742 109.801,501.863 "/>
<polygon fill="#3098C6" points="835.82,488.762 835.199,488.762 807.141,488.762 807.141,501.863 835.199,501.863 835.199,621.742 
	807.141,621.742 807.141,634.844 835.199,634.844 835.82,634.844 848.301,634.844 848.301,488.762 "/>
<path fill="#111111" d="M178.279,419.635c-14.094-14.03-21.143-31.61-21.143-52.737c0.066-20.669,7.129-38.053,21.193-52.147
	c14.062-14.096,31.494-21.143,52.291-21.143c21,0,39.018,6.542,54.064,19.622l-19.627,21.488
	c-10.008-7.849-21.482-11.775-34.438-11.775c-13.207,0.066-23.855,4.186-31.934,12.363c-8.078,8.176-12.115,18.642-12.115,31.396
	c0.061,13.672,4.154,24.529,12.262,32.576c8.111,8.044,18.773,12.068,31.986,12.068c13.211,0,24.625-3.893,34.238-11.676
	l19.627,21.487c-14.98,13.081-32.998,19.62-54.064,19.62C209.824,440.71,192.373,433.665,178.279,419.635z"/>
<path fill="#111111" d="M349.555,418.625c-13.996-14.027-20.99-31.424-20.99-52.191c0-20.832,6.994-38.247,20.99-52.244
	c13.998-13.995,31.414-20.994,52.242-20.994c20.832,0,38.248,7,52.246,20.994c13.992,13.998,20.99,31.413,20.99,52.244
	c0,20.83-6.998,38.246-20.99,52.241c-13.998,13.997-31.414,20.995-52.246,20.995C380.969,439.669,363.553,432.656,349.555,418.625z
	 M401.898,412.327c12.951,0,23.498-4.394,31.639-13.183c8.133-8.787,12.201-19.691,12.201-32.71c0-13.02-4.068-23.925-12.201-32.714
	c-8.141-8.789-18.75-13.183-31.838-13.183c-12.955,0-23.5,4.394-31.635,13.183c-8.141,8.789-12.205,19.694-12.205,32.714
	c0,13.019,4.064,23.923,12.205,32.71C378.199,407.933,388.811,412.327,401.898,412.327z"/>
<path fill="#111111" d="M517.244,440.126V293.904h56.311c45.457,0,68.189,24.386,68.189,73.16c0,48.708-22.732,73.062-68.189,73.062
	H517.244z M573.555,410.999c25.912-0.064,38.898-14.71,38.963-43.934c-0.064-29.226-13.051-43.838-38.963-43.838h-27.084v87.772
	H573.555z"/>
<path fill="#111111" d="M682.014,440.126V292.959l108.195-0.099v27.49h-78.74v31.417h59.002v27.391h-59.002v33.478h78.541v27.49
	H682.014z"/>
<path fill="#E8426A" d="M166.635,538.408v38.627h25.328v8.865h-34.826v-47.492H166.635z"/>
<path fill="#E8426A" d="M229.963,585.9v-47.461l34.893-0.031v8.865h-25.393v10.133h19.029v8.832h-19.029v10.797h25.328v8.865
	H229.963z"/>
<path fill="#E8426A" d="M302.855,585.615l18.768-46.922h9.389l18.736,46.891l-9.98,0.031l-2.814-7.193h-21.27l-2.818,7.193H302.855z
	 M326.568,551.203l-7.133,17.832h14.08L326.568,551.203z"/>
<path fill="#E8426A" d="M387.748,585.543v-46.777h18.014c14.547,0,21.814,7.799,21.814,23.402c0,15.584-7.268,23.375-21.814,23.375
	H387.748z M405.762,576.225c8.293-0.021,12.445-4.705,12.469-14.057c-0.023-9.348-4.176-14.021-12.469-14.021h-8.664v28.078H405.762
	z"/>
<path fill="#9BBF43" d="M505.566,578.771c-4.482-4.457-6.723-10.045-6.723-16.76c0.02-6.568,2.268-12.092,6.738-16.572
	c4.469-4.479,10.006-6.719,16.617-6.719c6.672,0,12.398,2.08,17.182,6.234l-6.238,6.828c-3.18-2.492-6.826-3.74-10.943-3.74
	c-4.197,0.021-7.582,1.332-10.148,3.93c-2.568,2.598-3.85,5.924-3.85,9.977c0.018,4.344,1.318,7.795,3.895,10.354
	c2.58,2.557,5.967,3.836,10.164,3.836c3.369,0,5.959-0.666,7.768-1.996v-8.014l-6.238,0.029v-8.732h15.592v21.828
	c-4.762,4.158-10.486,6.238-17.182,6.238C515.588,585.471,510.043,583.23,505.566,578.771z"/>
<path fill="#9BBF43" d="M604.279,565.1l11.664,20.393h-10.729l-11.195-19.334h-8.543v19.334h-9.354v-46.771h20.395
	c10.912,0,16.367,4.49,16.367,13.467C612.885,558.947,610.016,563.25,604.279,565.1z M585.477,557.426h13.096
	c3.762-0.059,5.695-1.777,5.801-5.143c-0.105-3.076-2.008-4.678-5.705-4.801h-13.191V557.426z"/>
<path fill="#9BBF43" d="M653.574,580.391c-4.652-4.66-6.975-10.441-6.975-17.342c0-6.918,2.322-12.703,6.975-17.355
	c4.646-4.65,10.438-6.973,17.354-6.973c6.92,0,12.707,2.322,17.355,6.973c4.652,4.652,6.977,10.438,6.977,17.355
	c0,6.92-2.324,12.709-6.977,17.357c-4.648,4.65-10.436,6.973-17.355,6.973C664.012,587.379,658.221,585.051,653.574,580.391z
	 M670.963,578.299c4.301,0,7.809-1.463,10.51-4.381c2.705-2.92,4.057-6.541,4.057-10.869c0-4.324-1.352-7.949-4.057-10.867
	c-2.701-2.918-6.227-4.379-10.578-4.379c-4.303,0-7.805,1.461-10.51,4.379c-2.701,2.918-4.055,6.543-4.055,10.867
	c0,4.328,1.354,7.949,4.055,10.869C663.09,576.836,666.615,578.299,670.963,578.299z"/>
<path fill="#9BBF43" d="M759.895,551.193l-9.354,34.301h-9.355l-12.504-46.773h9.98l8.137,31.803l8.418-31.803h9.668l8.107,31.803
	l8.105-31.803h9.979l-12.471,46.773h-9.355L759.895,551.193z"/>
<path fill="#111111" d="M466.268,586.623h-0.43c-1.82,0-3.25-0.52-4.289-1.559s-1.559-2.34-1.559-3.898
	c0-1.561,0.52-2.867,1.559-3.918c1.039-1.055,2.443-1.58,4.211-1.58c1.871,0,3.326,0.525,4.367,1.58
	c1.039,1.051,1.559,2.357,1.559,3.918v0.271c0,6.291-2.6,10.748-7.797,13.373l-1.949-3.508
	C464.045,590.496,465.486,588.936,466.268,586.623z"/>
</svg>
