<?xml version="1.0" encoding="UTF-8"?>
<svg width="745px" height="463px" viewBox="0 0 745 463" version="1.1" xmlns="http://www.w3.org/2000/svg" xmlns:xlink="http://www.w3.org/1999/xlink">
    <!-- Generator: Sketch 50.2 (55047) - http://www.bohemiancoding.com/sketch -->
    <title>code-lead-grow-concept-2</title>
    <desc>Created with Sketch.</desc>
    <defs></defs>
    <g id="Page-1" stroke="none" stroke-width="1" fill="none" fill-rule="evenodd">
        <polygon id="Rectangle" fill="#E8426A" points="0 147 656.066513 147 744.759842 317 0 317"></polygon>
        <g id="code-lead-grow-logo-white" transform="translate(1.000000, 0.000000)" fill-rule="nonzero">
            <g id="Group-3" fill="#111111">
                <path d="M21.1110559,125.633936 C7.12900804,111.71538 0.136,94.2750223 0.136,73.3158393 C0.201475746,52.8110183 7.20837258,35.5651037 21.1606587,21.5830559 C35.1109608,7.59902392 52.404494,0.608 73.0362983,0.608 C93.8694901,0.608 111.744369,7.09803527 126.670854,20.0741376 L107.199757,41.391453 C97.2712527,33.6047996 85.8883935,29.7099848 73.0353062,29.7099848 C59.9332127,29.7754605 49.3697924,33.8627344 41.354966,41.9747824 C33.3411315,50.0858384 29.3361984,60.4687044 29.3361984,73.1213962 C29.3967139,86.6847961 33.4572022,97.4555562 41.5007983,105.438637 C49.5473706,113.418741 60.1246797,117.410778 73.2327255,117.410778 C86.3387873,117.410778 97.662123,113.548701 107.198765,105.827523 L126.669862,127.143847 C111.808852,140.120941 93.9339738,146.608 73.0353062,146.608 C52.4054861,146.541532 35.0931037,139.552492 21.1110559,125.633936 Z" id="Shape"></path>
                <path d="M197.922075,126.023103 C183.971367,112.041495 177,94.7007933 177,74.0009968 C177,53.2364106 183.971367,35.8777667 197.922075,21.926062 C211.874776,7.97635075 229.234417,1 249.995016,1 C270.759602,1 288.119243,7.97734752 302.071945,21.926062 C316.018665,35.8787635 322.994019,53.2374073 322.994019,74.0009968 C322.994019,94.7635894 316.018665,112.12323 302.071945,126.072941 C288.119243,140.024646 270.759602,147 249.995016,147 C229.234417,146.999003 211.874776,140.008698 197.922075,126.023103 Z M250.095689,119.745484 C263.004779,119.745484 273.517648,115.365703 281.632303,106.605145 C289.738984,97.8465803 293.79382,86.9778664 293.79382,74.0009968 C293.79382,61.0231304 289.738984,50.1534197 281.632303,41.3928615 C273.517648,32.6323033 262.94298,28.2525226 249.897333,28.2525226 C236.984257,28.2525226 226.473381,32.6323033 218.364706,41.3928615 C210.250051,50.1534197 206.199203,61.0231304 206.199203,74.0009968 C206.199203,86.9778664 210.250051,97.8465803 218.364706,106.605145 C226.473381,115.365703 237.05104,119.745484 250.095689,119.745484 Z" id="Shape"></path>
                <path d="M373,147 L373,1 L429.225506,1 C474.613492,1 497.310979,25.3489762 497.310979,74.0489256 C497.310979,122.682975 474.613492,147 429.225506,147 L373,147 Z M429.225506,117.917222 C455.098166,117.853319 468.06445,103.229555 468.129351,74.0499241 C468.065448,44.8682962 455.098166,30.2784807 429.225506,30.2784807 L402.182626,30.2784807 L402.182626,117.917222 L429.225506,117.917222 Z" id="Shape"></path>
                <polygon id="Shape" points="548 147 548 1.09814893 655.264881 1 655.264881 28.253677 577.201785 28.253677 577.201785 59.4005948 635.696563 59.4005948 635.696563 86.5561229 577.201785 86.5561229 577.201785 119.746323 655.067592 119.746323 655.067592 147 548 147"></polygon>
            </g>
            <g id="Group" transform="translate(17.000000, 159.000000)" fill="#FFFFFF">
                <polygon id="Shape" points="29.1987703 0 29.1987703 118.7472 107.062158 118.7472 107.062158 146 0 146 0 0"></polygon>
                <polygon id="Shape" points="158 146 158 0.0953002611 265.268129 0 265.268129 27.2528005 187.204919 27.2528005 187.204919 58.403689 245.703908 58.403689 245.703908 85.5550408 187.204919 85.5550408 187.204919 118.7472 265.068306 118.7472 265.068306 146 158 146"></polygon>
                <path d="M316,147 L374.397511,1 L403.611824,1 L461.909765,146.903542 L430.856528,147 L422.100635,124.618644 L355.918034,124.618644 L347.149695,147 L316,147 Z M389.78411,39.9254507 L367.589446,95.4105537 L411.400026,95.4105537 L389.78411,39.9254507 Z" id="Shape"></path>
                <path d="M512,147 L512,1 L568.225153,1 C613.629134,1 636.310837,25.3421767 636.310837,74.0421361 C636.310837,122.682793 613.626013,147 568.225153,147 L512,147 Z M568.225153,117.916733 C594.109199,117.851188 607.068388,103.231524 607.143297,74.0421361 C607.07151,44.8652329 594.109199,30.2799025 568.225153,30.2799025 L541.183146,30.2799025 L541.183146,117.916733 L568.225153,117.916733 Z" id="Shape"></path>
            </g>
            <g id="Group-2" transform="translate(0.000000, 317.000000)" fill="#9BBF43">
                <path d="M21.442487,125.020226 C7.45180877,111.107586 0.456469683,93.6645001 0.456469683,72.7034551 C0.518900197,52.2012743 7.53608997,34.9579663 21.4893098,20.9735312 C35.4394082,6.99221757 52.723296,0 73.3597024,0 C94.1865219,0 112.060378,6.49277345 126.993757,19.4595912 L107.52168,40.7733687 C97.5952279,32.9945266 86.2141452,29.0988626 73.3628239,29.0988626 C60.2617806,29.1644146 49.6954161,33.2567348 41.6855811,41.3664586 C33.6695031,49.4761823 29.6677072,59.8583768 29.6677072,72.5099205 C29.7238946,86.0698281 33.781878,96.8422133 41.8260498,104.830198 C49.8795861,112.811939 60.4521936,116.80437 73.553237,116.80437 C84.0696571,116.80437 92.1544086,114.725434 97.8012486,110.573805 L97.8012486,85.5578979 L78.3291713,85.6484221 L78.3291713,58.3912597 L127,58.3912597 L127,126.527923 C112.135295,139.507227 94.2676815,146 73.3659454,146 C52.7264175,145.934448 35.4175575,138.939109 21.442487,125.020226 Z" id="Shape"></path>
                <path d="M265.589746,82.3413654 L302,146 L268.508435,146 L233.562207,85.6471318 L206.894443,85.6471318 L206.894443,146 L177.695067,146 L177.695067,0 L241.359945,0 C275.422762,0 292.451049,14.0159501 292.451049,42.0384854 C292.45417,63.1342071 283.498322,76.5664194 265.589746,82.3413654 Z M205.011667,54.61568 L243.251987,54.61568 C254.237027,54.4434 259.881387,49.42684 260.190907,39.59812 C259.884307,30.6162 254.327547,25.93836 243.532307,25.5792 L205.014587,25.5792 L205.014587,54.61568 L205.011667,54.61568 Z" id="Shape"></path>
                <path d="M372.928727,125.032266 C358.970241,111.049776 352,93.703687 352,72.9969995 C352,52.2393029 358.967241,34.8812117 372.928727,20.922726 C386.86921,6.97024128 404.248304,0 425,0 C445.763698,0 463.12779,6.96724074 477.074274,20.922726 C491.032759,34.8812117 498.009002,52.2423034 498.009002,72.9969995 C498.009002,93.7606971 491.03576,111.13079 477.074274,125.077274 C463.12779,139.029759 445.760697,146 425,146 C404.248304,146 386.87221,139.014756 372.928727,125.032266 Z M425.105019,118.755148 C438.010317,118.755148 448.536191,114.365366 456.640635,105.609807 C464.75708,96.8482469 468.813802,85.9833121 468.813802,72.9969995 C468.813802,60.022689 464.75708,49.145752 456.640635,40.3901928 C448.536191,31.6346336 437.956307,27.2508529 424.900982,27.2508529 C411.989683,27.2508529 401.481812,31.6346336 393.365366,40.3901928 C385.260923,49.145752 381.1982,60.022689 381.1982,72.9969995 C381.1982,85.9833121 385.260923,96.8482469 393.365366,105.609807 C401.481812,114.365366 412.058695,118.755148 425.105019,118.755148 Z" id="Shape"></path>
                <polygon id="Shape" points="646.430099 38.9308362 617.231971 146 588.030723 146 549 0 580.15216 0 605.551472 99.2717593 631.827914 0 662.006179 0 687.311847 99.2717593 712.611271 0 743.76031 0 704.832596 146 675.631347 146"></polygon>
            </g>
        </g>
    </g>
</svg>