<?xml version="1.0" encoding="utf-8"?>
<!-- Generator: Adobe Illustrator 15.0.2, SVG Export Plug-In . SVG Version: 6.00 Build 0)  -->
<!DOCTYPE svg PUBLIC "-//W3C//DTD SVG 1.1//EN" "http://www.w3.org/Graphics/SVG/1.1/DTD/svg11.dtd">
<svg version="1.1" id="Layer_1" xmlns="http://www.w3.org/2000/svg" xmlns:xlink="http://www.w3.org/1999/xlink" x="0px" y="0px"
	 width="234.191px" height="234.19px" viewBox="0 0 234.191 234.19" enable-background="new 0 0 234.191 234.19"
	 xml:space="preserve">
<g>
	<path fill="#FFFFFF" d="M230.191,205.19c0,13.75-11.25,25-25,25H29c-13.75,0-25-11.25-25-25V29C4,15.25,15.25,4,29,4h176.191
		c13.75,0,25,11.25,25,25V205.19z"/>
	<path fill="none" stroke="#CCCCCC" stroke-width="8" stroke-miterlimit="10" stroke-dasharray="11.9681,11.9681" d="
		M230.191,205.19c0,13.75-11.25,25-25,25H29c-13.75,0-25-11.25-25-25V29C4,15.25,15.25,4,29,4h176.191c13.75,0,25,11.25,25,25
		V205.19z"/>
</g>
<text transform="matrix(1 0 0 1 27.0166 142.0952)" fill="#CCCCCC" font-family="'Nunito-Regular'" font-size="72">Event</text>
</svg>
